<mxfile host="app.diagrams.net" modified="2024-02-11T13:01:54.141Z" agent="Mozilla/5.0 (Macintosh; Intel Mac OS X 10_15_7) AppleWebKit/537.36 (KHTML, like Gecko) Chrome/121.0.0.0 Safari/537.36" etag="eVdnzDHo21Rc1qGybGyi" version="23.1.2" type="device">
  <diagram name="Page-1" id="fb8KfqQnW8PII8tLkoZ6">
    <mxGraphModel dx="1242" dy="791" grid="1" gridSize="10" guides="1" tooltips="1" connect="1" arrows="1" fold="1" page="1" pageScale="1" pageWidth="850" pageHeight="1100" math="0" shadow="0">
      <root>
        <mxCell id="0" />
        <mxCell id="1" parent="0" />
        <mxCell id="3drRvT8gCUi0u6hs2iZT-29" value="Auto Scaling" style="rounded=0;whiteSpace=wrap;html=1;dashed=1;verticalAlign=top;" vertex="1" parent="1">
          <mxGeometry x="425" y="20" width="155" height="450" as="geometry" />
        </mxCell>
        <mxCell id="3drRvT8gCUi0u6hs2iZT-19" style="edgeStyle=orthogonalEdgeStyle;rounded=0;orthogonalLoop=1;jettySize=auto;html=1;" edge="1" parent="1" source="3drRvT8gCUi0u6hs2iZT-1" target="3drRvT8gCUi0u6hs2iZT-13">
          <mxGeometry relative="1" as="geometry" />
        </mxCell>
        <mxCell id="3drRvT8gCUi0u6hs2iZT-35" value="Streams to" style="edgeLabel;html=1;align=center;verticalAlign=middle;resizable=0;points=[];" vertex="1" connectable="0" parent="3drRvT8gCUi0u6hs2iZT-19">
          <mxGeometry x="0.119" relative="1" as="geometry">
            <mxPoint y="1" as="offset" />
          </mxGeometry>
        </mxCell>
        <mxCell id="3drRvT8gCUi0u6hs2iZT-1" value="Camera" style="shape=mxgraph.signs.tech.video_camera;html=1;pointerEvents=1;fillColor=#000000;strokeColor=none;verticalLabelPosition=bottom;verticalAlign=top;align=center;" vertex="1" parent="1">
          <mxGeometry x="40" y="34" width="98" height="40" as="geometry" />
        </mxCell>
        <mxCell id="3drRvT8gCUi0u6hs2iZT-11" value="Amazon EC2" style="sketch=0;outlineConnect=0;fontColor=#232F3E;gradientColor=none;strokeColor=#ffffff;fillColor=#232F3E;dashed=0;verticalLabelPosition=middle;verticalAlign=bottom;align=center;html=1;whiteSpace=wrap;fontSize=10;fontStyle=1;spacing=3;shape=mxgraph.aws4.productIcon;prIcon=mxgraph.aws4.ec2;" vertex="1" parent="1">
          <mxGeometry x="460" y="93" width="80" height="100" as="geometry" />
        </mxCell>
        <mxCell id="3drRvT8gCUi0u6hs2iZT-21" style="edgeStyle=orthogonalEdgeStyle;rounded=0;orthogonalLoop=1;jettySize=auto;html=1;" edge="1" parent="1" source="3drRvT8gCUi0u6hs2iZT-12" target="3drRvT8gCUi0u6hs2iZT-16">
          <mxGeometry relative="1" as="geometry" />
        </mxCell>
        <mxCell id="3drRvT8gCUi0u6hs2iZT-38" value="Triggers" style="edgeLabel;html=1;align=center;verticalAlign=middle;resizable=0;points=[];" vertex="1" connectable="0" parent="3drRvT8gCUi0u6hs2iZT-21">
          <mxGeometry x="0.2556" y="2" relative="1" as="geometry">
            <mxPoint y="1" as="offset" />
          </mxGeometry>
        </mxCell>
        <mxCell id="3drRvT8gCUi0u6hs2iZT-12" value="Amazon S3" style="sketch=0;outlineConnect=0;fontColor=#232F3E;gradientColor=none;strokeColor=#ffffff;fillColor=#232F3E;dashed=0;verticalLabelPosition=middle;verticalAlign=bottom;align=center;html=1;whiteSpace=wrap;fontSize=10;fontStyle=1;spacing=3;shape=mxgraph.aws4.productIcon;prIcon=mxgraph.aws4.s3;" vertex="1" parent="1">
          <mxGeometry x="230" y="210" width="80" height="100" as="geometry" />
        </mxCell>
        <mxCell id="3drRvT8gCUi0u6hs2iZT-20" style="edgeStyle=orthogonalEdgeStyle;rounded=0;orthogonalLoop=1;jettySize=auto;html=1;" edge="1" parent="1" source="3drRvT8gCUi0u6hs2iZT-13" target="3drRvT8gCUi0u6hs2iZT-12">
          <mxGeometry relative="1" as="geometry" />
        </mxCell>
        <mxCell id="3drRvT8gCUi0u6hs2iZT-37" value="Loads" style="edgeLabel;html=1;align=center;verticalAlign=middle;resizable=0;points=[];" vertex="1" connectable="0" parent="3drRvT8gCUi0u6hs2iZT-20">
          <mxGeometry x="-0.0693" y="-1" relative="1" as="geometry">
            <mxPoint y="1" as="offset" />
          </mxGeometry>
        </mxCell>
        <mxCell id="3drRvT8gCUi0u6hs2iZT-13" value="Amazon Kinesis Data Firehose" style="sketch=0;outlineConnect=0;fontColor=#232F3E;gradientColor=none;strokeColor=#ffffff;fillColor=#232F3E;dashed=0;verticalLabelPosition=middle;verticalAlign=bottom;align=center;html=1;whiteSpace=wrap;fontSize=10;fontStyle=1;spacing=3;shape=mxgraph.aws4.productIcon;prIcon=mxgraph.aws4.kinesis_data_firehose;" vertex="1" parent="1">
          <mxGeometry x="49" y="200" width="80" height="120" as="geometry" />
        </mxCell>
        <mxCell id="3drRvT8gCUi0u6hs2iZT-24" style="edgeStyle=orthogonalEdgeStyle;rounded=0;orthogonalLoop=1;jettySize=auto;html=1;" edge="1" parent="1" source="3drRvT8gCUi0u6hs2iZT-14" target="3drRvT8gCUi0u6hs2iZT-11">
          <mxGeometry relative="1" as="geometry" />
        </mxCell>
        <mxCell id="3drRvT8gCUi0u6hs2iZT-14" value="Computer Vision Model" style="image;aspect=fixed;html=1;points=[];align=center;fontSize=12;image=img/lib/azure2/ai_machine_learning/Computer_Vision.svg;" vertex="1" parent="1">
          <mxGeometry x="647" y="160" width="68" height="68" as="geometry" />
        </mxCell>
        <mxCell id="3drRvT8gCUi0u6hs2iZT-23" style="edgeStyle=orthogonalEdgeStyle;rounded=0;orthogonalLoop=1;jettySize=auto;html=1;" edge="1" parent="1" source="3drRvT8gCUi0u6hs2iZT-15" target="3drRvT8gCUi0u6hs2iZT-11">
          <mxGeometry relative="1" as="geometry" />
        </mxCell>
        <mxCell id="3drRvT8gCUi0u6hs2iZT-15" value="" style="sketch=0;outlineConnect=0;fontColor=#232F3E;gradientColor=none;fillColor=#ED7100;strokeColor=none;dashed=0;verticalLabelPosition=bottom;verticalAlign=top;align=center;html=1;fontSize=12;fontStyle=0;aspect=fixed;pointerEvents=1;shape=mxgraph.aws4.inferentia;" vertex="1" parent="1">
          <mxGeometry x="647" y="50" width="80" height="80" as="geometry" />
        </mxCell>
        <mxCell id="3drRvT8gCUi0u6hs2iZT-30" style="edgeStyle=orthogonalEdgeStyle;rounded=0;orthogonalLoop=1;jettySize=auto;html=1;entryX=0;entryY=0.5;entryDx=0;entryDy=0;" edge="1" parent="1" source="3drRvT8gCUi0u6hs2iZT-16" target="3drRvT8gCUi0u6hs2iZT-29">
          <mxGeometry relative="1" as="geometry" />
        </mxCell>
        <mxCell id="3drRvT8gCUi0u6hs2iZT-33" value="Sends Notification" style="edgeLabel;html=1;align=center;verticalAlign=middle;resizable=0;points=[];" vertex="1" connectable="0" parent="3drRvT8gCUi0u6hs2iZT-30">
          <mxGeometry x="-0.0276" y="-1" relative="1" as="geometry">
            <mxPoint as="offset" />
          </mxGeometry>
        </mxCell>
        <mxCell id="3drRvT8gCUi0u6hs2iZT-16" value="Amazon SNS" style="sketch=0;outlineConnect=0;fontColor=#232F3E;gradientColor=none;strokeColor=#ffffff;fillColor=#232F3E;dashed=0;verticalLabelPosition=middle;verticalAlign=bottom;align=center;html=1;whiteSpace=wrap;fontSize=10;fontStyle=1;spacing=3;shape=mxgraph.aws4.productIcon;prIcon=mxgraph.aws4.sns;" vertex="1" parent="1">
          <mxGeometry x="230" y="20" width="80" height="100" as="geometry" />
        </mxCell>
        <mxCell id="3drRvT8gCUi0u6hs2iZT-27" value="Amazon EC2" style="sketch=0;outlineConnect=0;fontColor=#232F3E;gradientColor=none;strokeColor=#ffffff;fillColor=#232F3E;dashed=0;verticalLabelPosition=middle;verticalAlign=bottom;align=center;html=1;whiteSpace=wrap;fontSize=10;fontStyle=1;spacing=3;shape=mxgraph.aws4.productIcon;prIcon=mxgraph.aws4.ec2;" vertex="1" parent="1">
          <mxGeometry x="460" y="210" width="80" height="100" as="geometry" />
        </mxCell>
        <mxCell id="3drRvT8gCUi0u6hs2iZT-28" value="Amazon EC2" style="sketch=0;outlineConnect=0;fontColor=#232F3E;gradientColor=none;strokeColor=#ffffff;fillColor=#232F3E;dashed=0;verticalLabelPosition=middle;verticalAlign=bottom;align=center;html=1;whiteSpace=wrap;fontSize=10;fontStyle=1;spacing=3;shape=mxgraph.aws4.productIcon;prIcon=mxgraph.aws4.ec2;" vertex="1" parent="1">
          <mxGeometry x="460" y="330" width="80" height="100" as="geometry" />
        </mxCell>
        <mxCell id="3drRvT8gCUi0u6hs2iZT-32" style="edgeStyle=orthogonalEdgeStyle;rounded=0;orthogonalLoop=1;jettySize=auto;html=1;entryX=0;entryY=0.75;entryDx=0;entryDy=0;startArrow=classic;startFill=1;endArrow=none;endFill=0;" edge="1" parent="1" source="3drRvT8gCUi0u6hs2iZT-31" target="3drRvT8gCUi0u6hs2iZT-29">
          <mxGeometry relative="1" as="geometry">
            <Array as="points">
              <mxPoint x="425" y="383" />
            </Array>
          </mxGeometry>
        </mxCell>
        <mxCell id="3drRvT8gCUi0u6hs2iZT-31" value="Application/Endpoint" style="outlineConnect=0;dashed=0;verticalLabelPosition=bottom;verticalAlign=top;align=center;html=1;shape=mxgraph.aws3.worker;fillColor=#D9A741;gradientColor=none;" vertex="1" parent="1">
          <mxGeometry x="225" y="335" width="90" height="95" as="geometry" />
        </mxCell>
      </root>
    </mxGraphModel>
  </diagram>
</mxfile>
